<?xml version="1.0" encoding="UTF-8" standalone="no"?>
<!-- Created with Inkscape (http://www.inkscape.org/) -->

<svg
   xmlns:dc="http://purl.org/dc/elements/1.1/"
   xmlns:cc="http://creativecommons.org/ns#"
   xmlns:rdf="http://www.w3.org/1999/02/22-rdf-syntax-ns#"
   xmlns:svg="http://www.w3.org/2000/svg"
   xmlns="http://www.w3.org/2000/svg"
   xmlns:sodipodi="http://sodipodi.sourceforge.net/DTD/sodipodi-0.dtd"
   xmlns:inkscape="http://www.inkscape.org/namespaces/inkscape"
   width="128"
   height="128"
   viewBox="0 0 128 128"
   id="svg2"
   version="1.1"
   inkscape:version="0.91 r13725"
   sodipodi:docname="icon.svg">
  <defs
     id="defs4" />
  <sodipodi:namedview
     id="base"
     pagecolor="#ffffff"
     bordercolor="#666666"
     borderopacity="1.0"
     inkscape:pageopacity="0.0"
     inkscape:pageshadow="2"
     inkscape:zoom="2.8"
     inkscape:cx="64.554911"
     inkscape:cy="71.006545"
     inkscape:document-units="px"
     inkscape:current-layer="layer1"
     showgrid="false"
     units="px"
     fit-margin-left="-0.1"
     inkscape:window-width="1920"
     inkscape:window-height="1022"
     inkscape:window-x="0"
     inkscape:window-y="0"
     inkscape:window-maximized="1" />
  <metadata
     id="metadata7">
    <rdf:RDF>
      <cc:Work
         rdf:about="">
        <dc:format>image/svg+xml</dc:format>
        <dc:type
           rdf:resource="http://purl.org/dc/dcmitype/StillImage" />
        <dc:title></dc:title>
      </cc:Work>
    </rdf:RDF>
  </metadata>
  <g
     inkscape:label="Layer 1"
     inkscape:groupmode="layer"
     id="layer1"
     transform="translate(0,-924.3622)">
    <path
       style="fill:#0fc100;fill-opacity:1;stroke:#0fc100;stroke-width:1.10000002;stroke-miterlimit:4;stroke-dasharray:none;stroke-opacity:1"
       id="path4686"
       d="m 51.818716,940.99092 c -1.080647,-0.34082 -2.20094,-0.48121 -3.325452,-0.57256 -1.19086,-0.0809 -2.385064,-0.0856 -3.578126,-0.0867 -1.050105,0.003 -2.100211,0.005 -3.150326,0.005 -0.993909,0.006 -1.987814,0.002 -2.981727,0.003 -1.09198,-8.2e-4 -2.183953,-0.004 -3.275932,-9e-4 -1.021791,0.005 -2.043559,0.002 -3.06534,-0.002 -1.143395,-0.0631 -2.269147,0.0507 -3.401296,0.18882 -0.888115,0.0194 -1.689761,0.27198 -2.472999,0.67365 -0.935861,0.42859 -1.86653,0.85938 -2.787615,1.32174 -0.906289,0.43224 -1.823629,0.85285 -2.69277,1.35799 7.746622,-4.58993 3.707455,-2.37672 2.232415,-0.8114 -0.706681,0.82806 -1.287253,1.75185 -1.93614,2.62418 -0.840057,1.00455 -1.691186,1.99233 -2.437986,3.07027 -0.551697,0.82965 -0.762852,1.77377 -0.855361,2.74892 -0.05187,0.79864 -0.07186,1.59694 0.05159,2.38885 0.115744,0.9675 0.212535,1.52159 0.797382,2.31953 0.755267,0.76179 1.586916,1.44294 2.384954,2.15901 0.763042,0.66205 1.420698,1.44036 2.265885,2.00069 0.679331,0.48634 1.413045,0.88122 2.13527,1.29712 0.921853,0.50681 1.790204,1.10734 2.704933,1.62898 0.97623,0.59953 1.912387,1.2569 2.913591,1.81654 1.014828,0.56463 2.093262,0.96706 3.080567,1.58783 0.901468,0.49313 1.825722,0.93214 2.674617,1.51412 0.811031,0.54735 1.650468,1.04398 2.462243,1.59038 1.026685,0.63232 1.977652,1.36775 2.992361,2.01703 0.893349,0.56082 1.692845,1.24833 2.467367,1.95991 0.737755,0.69335 1.450902,1.41223 2.166007,2.12874 0.749078,0.71587 1.32061,1.59293 1.90146,2.44533 0.677665,0.94407 1.352461,1.89139 2.079342,2.79864 0.661278,0.84305 1.136864,1.80607 1.626075,2.75374 0.501412,1.25526 1.069913,2.47874 1.631291,3.70771 0.571735,1.0996 0.82806,2.29132 1.084237,3.48942 0.244731,1.01477 0.321736,2.05885 0.375959,3.09813 0.0357,1.04769 0.03952,2.09672 0.03808,3.14504 -0.0017,1.10649 -0.007,2.21296 -0.0094,3.31944 -0.0042,1.127 -2.75e-4,2.254 0.0067,3.381 0.01597,0.9808 0.01516,1.9547 -0.09054,2.9303 -0.126907,1.4207 -0.97605,2.4503 -1.926295,3.4335 -2.37754,2.191 -5.429243,3.6216 -8.183676,5.2115 -1.240495,0.6759 -2.595624,1.085 -3.886507,1.6454 -1.10492,0.4824 -2.277466,0.7914 -3.452801,1.0486 -1.171302,0.2098 -2.310509,0.5426 -3.48689,0.7306 -1.247338,0.072 -2.447572,0.4037 -3.671583,0.6182 -1.464998,0.2448 -2.931353,0.4405 -4.412109,0.5596 -1.444886,0.1962 -2.895471,0.3395 -4.352259,0.4013 -1.590671,0.048 -3.182516,0.048 -4.773809,0.049 -1.24931,0.01 -2.498625,0.01 -3.747941,0.013 -0.927789,7e-4 -1.84446,0.08 -2.739892,-0.1936 -0.823477,-0.2758 -1.5976752,-0.673 -2.4000451,-1.005 -1.0000242,-0.2637 -1.9468711,-0.6882 -2.9361067,-0.9839 -0.1567701,-0.037 -0.3135401,-0.074 -0.4703102,-0.1103 0,0 4.3424942,-2.9904 4.3424942,-2.9904 l 0,0 c 0.1615983,0.045 0.3231968,0.091 0.4847948,0.1362 0.988843,0.3341 1.967207,0.6978 2.960762,1.0172 0.787373,0.3165 1.543439,0.7203 2.367871,0.9348 0.876027,0.1605 1.768051,0.074 2.654529,0.098 1.23468,0.01 2.469362,0.013 3.704051,0.017 1.59094,-0 3.182711,-0 4.772234,-0.08 1.451756,-0.088 2.896603,-0.2401 4.340515,-0.4135 1.473288,-0.129 2.932687,-0.3514 4.388706,-0.6096 1.221183,-0.2481 2.440622,-0.4824 3.680789,-0.6162 1.167699,-0.2226 2.313039,-0.5403 3.481054,-0.7619 1.153647,-0.2822 2.296521,-0.6149 3.381358,-1.1052 1.294468,-0.5212 2.61945,-0.9808 3.832339,-1.6827 -7.845027,4.5551 -2.274011,1.5056 -0.712017,0.076 0.909826,-0.8876 1.874279,-1.7671 2.040174,-3.0992 0.11465,-0.9566 0.137561,-1.9109 0.112822,-2.8746 0.007,-1.1297 0.01112,-2.2593 0.0081,-3.3889 -10e-4,-1.1044 -0.0037,-2.2089 -0.0024,-3.31326 -7.82e-4,-1.04131 0.01,-2.08278 -0.02631,-3.12371 -0.04013,-1.01312 -0.103794,-2.03063 -0.336791,-3.02089 -0.247454,-1.16179 -0.430723,-2.33671 -0.99199,-3.40567 -0.573024,-1.21368 -1.138045,-2.42873 -1.642876,-3.67287 -0.483382,-0.91356 -0.953108,-1.83921 -1.580575,-2.66494 -0.726002,-0.92269 -1.401071,-1.88405 -2.097383,-2.82873 -0.573879,-0.81991 -1.12892,-1.6684 -1.859449,-2.35981 -0.709881,-0.71064 -1.417872,-1.4237 -2.153164,-2.10825 -0.757647,-0.68826 -1.543025,-1.34686 -2.413265,-1.89072 -1.008312,-0.65973 -1.952763,-1.40906 -2.99265,-2.02185 -0.824747,-0.53097 -1.67191,-1.02443 -2.477729,-1.58514 -0.853053,-0.55651 -1.77445,-0.98966 -2.652338,-1.50486 -0.991202,-0.59763 -2.077203,-0.98247 -3.072566,-1.57039 -0.993451,-0.57188 -1.919884,-1.24801 -2.909476,-1.82638 -0.907729,-0.53986 -1.803095,-1.09835 -2.728451,-1.60742 -0.739323,-0.41599 -1.467494,-0.85043 -2.158445,-1.34406 -0.822744,-0.61723 -1.512561,-1.38239 -2.282209,-2.06235 -0.824416,-0.74027 -1.698082,-1.43355 -2.450833,-2.24788 -0.607452,-0.83646 -0.836265,-1.49973 -0.935111,-2.52474 -0.145037,-0.83353 -0.156426,-1.66511 -0.09753,-2.51021 0.06995,-1.04849 0.237019,-2.07374 0.763785,-3.00366 0.718882,-1.09919 1.543994,-2.11583 2.417457,-3.09531 0.672248,-0.85978 1.263793,-1.77351 1.904274,-2.6564 1.805478,-2.1098 4.26149,-3.21303 6.735805,-4.54332 0.890536,-0.46343 1.790608,-0.90915 2.698395,-1.33777 0.927396,-0.46834 1.886396,-0.86563 2.821231,-1.31859 0.826662,-0.32215 1.66705,-0.49249 2.555998,-0.53274 1.141026,-0.1232 2.281304,-0.16748 3.429288,-0.13463 1.024056,-0.005 2.048099,-0.007 3.072165,-0.002 1.092832,0.003 2.185659,-3e-5 3.278492,-0.001 0.992841,-1.4e-4 1.985674,-0.005 2.978518,-10e-4 1.049287,-0.003 2.098609,-0.007 3.147869,0.001 1.198464,0.0116 2.398814,0.0214 3.593262,0.13082 1.144348,0.11412 2.265406,0.32093 3.389165,0.56076 0,0 -4.33591,3.05717 -4.33591,3.05717 z"
       inkscape:connector-curvature="0" />
    <path
       style="fill:#0fc100;fill-opacity:1;stroke:#0fc100;stroke-width:1.10000002;stroke-miterlimit:4;stroke-dasharray:none;stroke-opacity:1"
       id="path4697"
       d="m 44.146219,932.21551 c -0.107784,5.35743 -0.662605,10.67649 -1.61837,15.95011 -0.428551,2.36461 -0.947986,4.71185 -1.421978,7.06777 -4.104845,18.63108 -9.439769,36.95715 -14.862915,55.23781 -2.749942,9.037 -5.522889,18.09 -7.56598,27.32 -0.713635,3.224 -1.08654,5.4494 -1.658759,8.6256 -0.169921,0.9605 -0.339843,1.9211 -0.509765,2.8816 0,0 -4.361123,2.1142 -4.361123,2.1142 l 0,0 c 0.220974,-0.9846 0.441949,-1.9692 0.662923,-2.9539 0.524744,-2.458 1.362234,-6.4489 1.928252,-8.78 2.26272,-9.3189 5.220526,-18.4553 8.099274,-27.5959 1.60924,-5.2836 3.990385,-13.02382 5.495832,-18.29074 3.467709,-12.13206 6.597463,-24.37191 9.054703,-36.75099 0.407486,-2.31587 0.86962,-4.62278 1.222458,-6.9476 0.776749,-5.11793 1.163609,-10.30085 0.814439,-15.47248 0,0 4.721009,-2.40548 4.721009,-2.40548 z"
       inkscape:connector-curvature="0" />
    <ellipse
       style="fill:#ff0a0a;fill-opacity:1;stroke:none;stroke-width:1.10000002;stroke-miterlimit:4;stroke-dasharray:none;stroke-opacity:1"
       id="path4699"
       cx="97.85714"
       cy="985.93365"
       rx="21.428572"
       ry="20.357143" />
  </g>
</svg>
